# xmcd
#
# Track frame offsets:
#	150
#	9972
#	19669
#	29169
#	40216
#	50018
#	60388
#	68576
#	78470
#	89004
#	104431
#	118626
#	127813
#	137183
#	148219
#
# Disc length: 2109 seconds
#
# Revision: 0
# Processed by: cddbd v1.5PL3 Copyright (c) Steve Scherf et al.
# Submitted via: audiograbber 1.82.02
#
DISCID=d0083b0f
DTITLE=Petr Brandejs Band - Hello Heartache
DYEAR=2002
DGENRE=Bluegrass
TTITLE0=Sun´s Gonna Shine My Backdoor Someday
TTITLE1=Boss Man
TTITLE2=It´s Good Bye And So Long To You
TTITLE3=I´d Like To
TTITLE4=Miner´s Joy
TTITLE5=Hello Heartache
TTITLE6=Cindy
TTITLE7=Alone Without You
TTITLE8=You Put Me On My Feet
TTITLE9=When The Ship Comes
TTITLE10=Little Tumbleweed
TTITLE11=Martin In The Lowground
TTITLE12=Once More From The Bottom
TTITLE13=I´m On My Way
TTITLE14=Darling Nellie
EXTD=
EXTT0=
EXTT1=
EXTT2=
EXTT3=
EXTT4=
EXTT5=
EXTT6=
EXTT7=
EXTT8=
EXTT9=
EXTT10=
EXTT11=
EXTT12=
EXTT13=
EXTT14=
PLAYORDER=
